<svg width="450px" height="480px" viewBox="0 0 264 280" version="1.1" xmlns="http://www.w3.org/2000/svg" xmlns:xlink="http://www.w3.org/1999/xlink"><desc>Avatar Creator</desc><defs><circle id="path-1" cx="120" cy="120" r="120"></circle><path d="M12,160 C12,226.27417 65.72583,280 132,280 C198.27417,280 252,226.27417 252,160 L264,160 L264,-1.42108547e-14 L-3.19744231e-14,-1.42108547e-14 L-3.19744231e-14,160 L12,160 Z" id="path-3"></path><path d="M124,144.610951 L124,163 L128,163 L128,163 C167.764502,163 200,195.235498 200,235 L200,244 L0,244 L0,235 C-4.86974701e-15,195.235498 32.235498,163 72,163 L72,163 L76,163 L76,144.610951 C58.7626345,136.422372 46.3722246,119.687011 44.3051388,99.8812385 C38.4803105,99.0577866 34,94.0521096 34,88 L34,74 C34,68.0540074 38.3245733,63.1180731 44,62.1659169 L44,56 L44,56 C44,25.072054 69.072054,5.68137151e-15 100,0 L100,0 L100,0 C130.927946,-5.68137151e-15 156,25.072054 156,56 L156,62.1659169 C161.675427,63.1180731 166,68.0540074 166,74 L166,88 C166,94.0521096 161.51969,99.0577866 155.694861,99.8812385 C153.627775,119.687011 141.237365,136.422372 124,144.610951 Z" id="path-5"></path></defs><g id="avatarmaker" stroke="none" stroke-width="1" fill="none" fill-rule="evenodd"><g transform="translate(-825.000000, -1100.000000)" id="avatarmaker/Circle"><g transform="translate(825.000000, 1100.000000)"><g id="Circle" stroke-width="1" fill-rule="evenodd" transform="translate(12.000000, 40.000000)"><mask id="mask-2" fill="white"><use xlink:href="#path-1"></use></mask><use id="Circle-Background" fill="#E6E6E6" xlink:href="#path-1"></use><g id="ColorPaletteBlue01" mask="url(#mask-2)" fill="#df95fe" style="fill: rgb(222, 222, 222);"><rect id="ðŸ–Color" x="0" y="0" width="240" height="240"></rect></g></g><mask id="mask-4" fill="white"><use xlink:href="#path-3"></use></mask><g id="Mask"></g><g id="avatarmaker" stroke-width="1" fill-rule="evenodd" mask="url(#mask-4)"><g id="Body" transform="translate(32.000000, 36.000000)"><mask id="mask-6" fill="white"><use xlink:href="#path-5"></use></mask><use fill="#D0C6AC" xlink:href="#path-5"></use><g id="Skin/ðŸ‘¶ðŸ½-03-Brown" mask="url(#mask-6)" fill="#EDB98A"><g transform="translate(-32.000000, 0.000000)" id="Color"><rect x="0" y="0" width="264" height="244"></rect></g></g><path d="M156,79 L156,102 C156,132.927946 130.927946,158 100,158 C69.072054,158 44,132.927946 44,102 L44,79 L44,94 C44,124.927946 69.072054,150 100,150 C130.927946,150 156,124.927946 156,94 L156,79 Z" id="Neck-Shadow" fill-opacity="0.100000001" fill="#000000" mask="url(#mask-6)"></path></g><g id="Clothing/Hoodie" transform="translate(0.000000, 170.000000)"><defs><path d="M108,13.0708856 C90.0813006,15.075938 76.2798424,20.5518341 76.004203,34.6449676 C50.1464329,45.5680933 32,71.1646257 32,100.999485 L32,100.999485 L32,110 L232,110 L232,100.999485 C232,71.1646257 213.853567,45.5680933 187.995797,34.6449832 C187.720158,20.5518341 173.918699,15.075938 156,13.0708856 L156,32 L156,32 C156,45.254834 145.254834,56 132,56 L132,56 C118.745166,56 108,45.254834 108,32 L108,13.0708856 Z" id="react-path-1"></path></defs><mask id="react-mask-2" fill="white"><use xlink:href="#react-path-1"></use></mask><use id="Hoodie" fill="#B7C1DB" fill-rule="evenodd" xlink:href="#react-path-1"></use><g id="Color/Palette/Gray-01" mask="url(#react-mask-2)" fill-rule="evenodd" fill="#25557C"><rect id="ðŸ–Color" x="0" y="0" width="264" height="110"></rect></g><path d="M102,61.7390531 L102,110 L95,110 L95,58.1502625 C97.2037542,59.4600576 99.5467694,60.6607878 102,61.7390531 Z M169,58.1502625 L169,98.5 C169,100.432997 167.432997,102 165.5,102 C163.567003,102 162,100.432997 162,98.5 L162,61.7390531 C164.453231,60.6607878 166.796246,59.4600576 169,58.1502625 Z" id="Straps" fill="#F4F4F4" fill-rule="evenodd" mask="url(#react-mask-2)"></path><path d="M90.9601329,12.7243537 C75.9093095,15.5711782 65.5,21.2428847 65.5,32.3076923 C65.5,52.0200095 98.5376807,68 132,68 C165.462319,68 198.5,52.0200095 198.5,32.3076923 C198.5,21.2428847 188.09069,15.5711782 173.039867,12.7243537 C182.124921,16.0744598 188,21.7060546 188,31.0769231 C188,51.4689754 160.178795,68 132,68 C103.821205,68 76,51.4689754 76,31.0769231 C76,21.7060546 81.8750795,16.0744598 90.9601329,12.7243537 Z" id="Shadow" fill-opacity="0.16" fill="#000000" fill-rule="evenodd" mask="url(#react-mask-2)"></path></g><g id="Face" transform="translate(76.000000, 82.000000)" fill="#000000"><g id="Mouth/Smile" transform="translate(2.000000, 52.000000)"><defs><path d="M35.117844,15.1280772 C36.1757121,24.6198025 44.2259873,32 54,32 C63.8042055,32 71.8740075,24.574136 72.8917593,15.0400546 C72.9736685,14.272746 72.1167429,13 71.042767,13 C56.1487536,13 44.7379213,13 37.0868244,13 C36.0066168,13 35.0120058,14.1784435 35.117844,15.1280772 Z" id="react-path-3"></path></defs><mask id="react-mask-4" fill="white"><use xlink:href="#react-path-3"></use></mask><use id="Mouth" fill-opacity="0.699999988" fill="#000000" fill-rule="evenodd" xlink:href="#react-path-3"></use><rect id="Teeth" fill="#FFFFFF" fill-rule="evenodd" mask="url(#react-mask-4)" x="39" y="2" width="31" height="16" rx="5"></rect><g id="Tongue" stroke-width="1" fill-rule="evenodd" mask="url(#react-mask-4)" fill="#FF4F6D"><g transform="translate(38.000000, 24.000000)"><circle cx="11" cy="11" r="11"></circle><circle cx="21" cy="11" r="11"></circle></g></g></g><g id="Nose/Default" transform="translate(28.000000, 40.000000)" fill-opacity="0.16"><path d="M16,8 C16,12.418278 21.372583,16 28,16 L28,16 C34.627417,16 40,12.418278 40,8" id="Nose"></path></g><g id="Eyes/Wink-ðŸ˜‰" transform="translate(0.000000, 8.000000)" fill-opacity="0.599999964"><circle id="Eye" cx="30" cy="22" r="6"></circle><path d="M70.4123979,24.204889 C72.2589064,20.4060854 76.4166529,17.7575774 81.2498107,17.7575774 C86.065907,17.7575774 90.2113521,20.3874194 92.0675822,24.1647016 C92.618991,25.2867751 91.8343342,26.2050591 91.0428374,25.5246002 C88.5917368,23.4173607 85.1109468,22.1013658 81.2498107,22.1013658 C77.5094365,22.1013658 74.1259889,23.3363293 71.6897696,25.3292186 C70.7990233,26.0578718 69.8723316,25.3159619 70.4123979,24.204889 Z" id="Winky-Wink" transform="translate(81.252230, 21.757577) rotate(-4.000000) translate(-81.252230, -21.757577) "></path></g><g id="Eyebrow/Outline/Raised-Excited" fill-opacity="0.599999964"><g id="I-Browse" transform="translate(12.000000, 0.000000)"><path d="M3.97579559,17.1279169 C5.47099148,7.60476158 18.0585488,1.10867597 27.1635167,5.30104271 C28.1668367,5.76301969 29.3546946,5.32417444 29.8166716,4.32085442 C30.2786486,3.3175344 29.8398033,2.12967649 28.8364833,1.66769952 C17.3488212,-3.62177466 1.93575948,4.3324746 0.0242044059,16.507492 C-0.147121205,17.5986938 0.598585765,18.6221744 1.68978754,18.7935 C2.78098932,18.9648257 3.80446998,18.2191187 3.97579559,17.1279169 Z" id="Eyebrow" fill-rule="nonzero"></path><path d="M61.9757956,17.1279169 C63.4709915,7.60476158 76.0585488,1.10867597 85.1635167,5.30104271 C86.1668367,5.76301969 87.3546946,5.32417444 87.8166716,4.32085442 C88.2786486,3.3175344 87.8398033,2.12967649 86.8364833,1.66769952 C75.3488212,-3.62177466 59.9357595,4.3324746 58.0242044,16.507492 C57.8528788,17.5986938 58.5985858,18.6221744 59.6897875,18.7935 C60.7809893,18.9648257 61.80447,18.2191187 61.9757956,17.1279169 Z" id="Eyebrow" fill-rule="nonzero" transform="translate(73.000097, 9.410436) scale(-1, 1) translate(-73.000097, -9.410436) "></path></g></g></g><g id="Top" stroke-width="1" fill-rule="evenodd"><defs><rect id="react-path-9" x="0" y="0" width="264" height="280"></rect><path d="M156,180.610951 C173.530782,172.282984 186.048193,155.114792 187.791419,134.867187 C193.569129,134.002364 198,129.018625 198,123 L198,110 C198,104.054007 193.675427,99.1180731 188,98.1659169 L188,92 C188,84.0546578 186.345324,76.495786 183.361772,69.6491845 C173.434911,53 89.3126235,53.8033992 80.7098777,69.4854816 C77.6811789,76.3752214 76,83.9912805 76,92 L76,98.1659169 C70.3245733,99.1180731 66,104.054007 66,110 L66,123 C66,129.018625 70.4308707,134.002364 76.2085808,134.867187 C77.9518066,155.114792 90.4692178,172.282984 108,180.610951 L108,199 L104,199 L104,199 C64.235498,199 32,231.235498 32,271 L32,280 L232,280 L232,271 C232,231.235498 199.764502,199 160,199 L156,199 L156,180.610951 Z M0,5.68434189e-14 L264,5.68434189e-14 L264,280 L0,280 L0,5.68434189e-14 Z" id="react-path-8"></path><filter x="-0.8%" y="-2.0%" width="101.5%" height="108.0%" filterUnits="objectBoundingBox" id="react-filter-5"><feOffset dx="0" dy="2" in="SourceAlpha" result="shadowOffsetOuter1"></feOffset><feColorMatrix values="0 0 0 0 0   0 0 0 0 0   0 0 0 0 0  0 0 0 0.16 0" type="matrix" in="shadowOffsetOuter1" result="shadowMatrixOuter1"></feColorMatrix><feMerge><feMergeNode in="shadowMatrixOuter1"></feMergeNode><feMergeNode in="SourceGraphic"></feMergeNode></feMerge></filter></defs><mask id="react-mask-6" fill="white"><use xlink:href="#react-path-9"></use></mask><g id="Mask"></g><g id="Top/Accesories/Hat" mask="url(#react-mask-6)"><g transform="translate(-1.000000, 0.000000)"><g id="Hat" stroke-width="1" fill-rule="evenodd" transform="translate(1.000000, 0.000000)"><mask id="react-mask-7" fill="white"><use xlink:href="#react-path-8"></use></mask><g id="Mask-Hair"></g><path d="M123.182388,2 L141.817612,2 L141.817612,2 C160.609055,2 176.866947,15.0804442 180.890118,33.4361631 L190,75 L75,75 L84.1098821,33.4361631 L84.1098821,33.4361631 C88.1330533,15.0804442 104.390945,2 123.182388,2 Z" fill="#1F333C" mask="url(#react-mask-7)"></path><ellipse id="Hipster" fill="#1F333C" mask="url(#react-mask-7)" cx="132" cy="87.5" rx="122" ry="57.5"></ellipse><ellipse id="Very" fill="#15232A" mask="url(#react-mask-7)" cx="132" cy="82" rx="62" ry="25"></ellipse></g><g id="Top/_Resources/Prescription-02" fill="none" transform="translate(62.000000, 85.000000)" stroke-width="1"><defs><filter x="-0.8%" y="-2.4%" width="101.5%" height="109.8%" filterUnits="objectBoundingBox" id="react-filter-10"><feOffset dx="0" dy="2" in="SourceAlpha" result="shadowOffsetOuter1"></feOffset><feColorMatrix values="0 0 0 0 0   0 0 0 0 0   0 0 0 0 0  0 0 0 0.2 0" type="matrix" in="shadowOffsetOuter1" result="shadowMatrixOuter1"></feColorMatrix><feMerge><feMergeNode in="shadowMatrixOuter1"></feMergeNode><feMergeNode in="SourceGraphic"></feMergeNode></feMerge></filter></defs><g id="Wayfarers" filter="url(#react-filter-10)" transform="translate(6.000000, 7.000000)" fill="#252C2F"><path d="M34,41 L31.2421498,41 C17.3147125,41 9,33.3359286 9,20.5 C9,10.127 10.8170058,0 32.5299306,0 L35.4700694,0 C57.1829942,0 59,10.127 59,20.5 C59,32.5686429 48.7212748,41 34,41 Z M32.3853606,6 C13,6 13,12.8410159 13,21.5015498 C13,28.5719428 16.116254,37 30.9709365,37 L34,37 C46.3649085,37 55,30.6270373 55,21.5015498 C55,12.8410159 55,6 35.6146394,6 L32.3853606,6 Z" id="Left" fill-rule="nonzero"></path><path d="M96,41 L93.2421498,41 C79.3147125,41 71,33.3359286 71,20.5 C71,10.127 72.8170058,0 94.5299306,0 L97.4700694,0 C119.182994,0 121,10.127 121,20.5 C121,32.5686429 110.721275,41 96,41 Z M94.3853606,6 C75,6 75,12.8410159 75,21.5015498 C75,28.5719428 78.1194833,37 92.9709365,37 L96,37 C108.364909,37 117,30.6270373 117,21.5015498 C117,12.8410159 117,6 97.6146394,6 L94.3853606,6 Z" id="Right" fill-rule="nonzero"></path><path d="M2.95454545,5.77156439 C3.64590909,5.09629136 11.2095455,0 32.5,0 C50.3513636,0 54.1302273,1.85267217 59.8502273,4.6518809 L60.2689233,4.85850899 C60.6666014,4.99901896 62.7002447,5.68982981 65.0790606,5.76579519 C67.2462948,5.67278567 69.1000195,5.08540191 69.641698,4.89719767 C76.1703915,1.7220864 82.5610971,0 97.5,0 C118.790455,0 126.354091,5.09629136 127.045455,5.77156439 C128.679318,5.77156439 130,7.06150904 130,8.65734659 L130,11.5431288 C130,13.1389663 128.679318,14.428911 127.045455,14.428911 C127.045455,14.428911 120.143997,14.428911 120.143997,17.3146932 C120.143997,20.2004754 118.181818,13.1389663 118.181818,11.5431288 L118.181818,8.73240251 C114.578575,7.35340151 108.128411,4.78617535 97.5,4.78617535 C85.6584651,4.78617535 79.7610984,6.88602813 74.7022935,8.97112368 L74.7588636,9.10752861 L74.7563667,11.0937608 L72.5391666,16.4436339 L69.8004908,15.3608351 C69.5558969,15.2641292 69.0281396,15.090392 68.2963505,14.9099044 C66.256272,14.4067419 64.1589087,14.253569 62.3040836,14.6343084 C61.6235903,14.7739931 60.9922286,14.9836085 60.4128127,15.266732 L57.7704824,16.5578701 L55.1266751,11.3962031 L55.2440909,9.10175705 L55.3248203,8.90683855 C50.9620526,6.87386374 46.9392639,4.78617535 32.5,4.78617535 C21.8721459,4.78617535 15.422131,7.3524397 11.8181818,8.7314671 L11.8181818,11.5431288 C11.8181818,13.1389663 8.86363636,20.2004754 8.86363636,17.3146932 C8.86363636,14.428911 2.95454545,14.428911 2.95454545,14.428911 C1.32363636,14.428911 0,13.1389663 0,11.5431288 L0,8.65734659 C0,7.06150904 1.32363636,5.77156439 2.95454545,5.77156439 Z" id="Stuff" fill-rule="nonzero"></path></g></g></g></g></g></g></g></g></g></svg>